<svg id="레이어_1" data-name="레이어 1" xmlns="http://www.w3.org/2000/svg" viewBox="0 0 222.82 71.17"><defs><style>.cls-1{fill:#8fc31f;}.cls-2{fill:#fff;}.cls-3{fill:#22ac38;}.cls-4{fill:#f599a0;}.cls-5{fill:#13ae67;}.cls-6{fill:#9fa5fc;}.cls-7{fill:#dec99f;}.cls-8{font-size:8.91px;font-family:BlackHanSans-Regular, Black Han Sans;}.cls-9{fill:#dcdddd;}.cls-10{stroke:#231815;stroke-linecap:round;stroke-miterlimit:10;}</style></defs><path class="cls-1" d="M2.55,51.58V37.35H49.32V51.58ZM31.78,36.17V19.09H3.69V4.86h44.5l-.7,31.31Z" transform="translate(-2.35 -4.23)"/><path class="cls-2" d="M46.49,48.75H5.38V40.18H46.49Zm-40-32.49V7.7H45.29l-.57,25.63H34.61V16.26Z" transform="translate(-2.35 -4.23)"/><polygon class="cls-3" points="60.71 49.06 60.71 29.59 59.57 29.59 59.57 0.46 88.81 0.46 88.81 0 105.21 0 105.21 49.06 60.71 49.06"/><path class="cls-2" d="M75.49,22.54v1.94H90.22V31H64.76V16H78.35V14.09H64.76V7.52H89.08v15Zm29.24,27.92H65.9V33.84h38.83ZM76.64,41v2.28H94V41Zm28.09-9.48H94V7.07h10.74Z" transform="translate(-2.35 -4.23)"/><path class="cls-4" d="M149.39,53.29V51.58H120.16V20.79h13.59V19H120.16V4.8h29.23V4.23H165.8V53.29Zm0-15.94V35H136.56v2.33Z" transform="translate(-2.35 -4.23)"/><path class="cls-2" d="M147.26,32.19H133.73v8H148.4v8.57H123V23.62h13.59V16.2H123V7.64h24.26ZM163,7.07V50.46H152.23V32.19H148.4V23.62h3.83V7.07Z" transform="translate(-2.35 -4.23)"/><polygon class="cls-5" points="177.19 49.06 177.19 27.31 176.04 27.31 176.04 15.42 177.19 15.42 177.19 0.57 221.68 0.57 221.68 15.42 222.82 15.42 222.82 27.31 221.68 27.31 221.68 37.74 222.25 37.74 222.25 49.06 177.19 49.06"/><path class="cls-2" d="M181.23,22.48h41.11v6.23H181.23Zm1.14-14.84H221.2v5.65H193.05v1.88H221.2v5.54H182.37Zm10.68,35.57v1.6h28.72v5.65h-39.4V37.56h28.1V36h-28.1V30.31H221.2v12.9Z" transform="translate(-2.35 -4.23)"/><polyline class="cls-6" points="209.2 50.36 209.2 71.17 18.13 71.17 0 60.88 18.13 50.36"/><polygon class="cls-7" points="18.2 50.39 3.42 58.9 3.42 62.8 18.2 71.14 18.2 50.39"/><path class="cls-7" d="M24.44,86.07" transform="translate(-2.35 -4.23)"/><text class="cls-8" transform="translate(140.63 65.93)">by Tojaeung</text><path class="cls-9" d="M209.68,50.36H216a6.85,6.85,0,0,1,6.85,6.85v7.12A6.85,6.85,0,0,1,216,71.17h-6.3a.48.48,0,0,1-.48-.48V50.84A.48.48,0,0,1,209.68,50.36Z"/><line class="cls-10" x1="211.94" y1="52.28" x2="211.94" y2="69.1"/><polyline points="3.42 58.9 0 60.88 3.42 62.8"/></svg>