<svg id="레이어_1" data-name="레이어 1" xmlns="http://www.w3.org/2000/svg" viewBox="0 0 231.15 206.16"><defs><style>.cls-1{fill:#8fc31f;}.cls-12,.cls-2{fill:#fff;}.cls-3{fill:#22ac38;}.cls-4{fill:#f599a0;}.cls-5{fill:#13ae67;}.cls-6{fill:#9fa5fc;}.cls-7{fill:#dec99f;}.cls-8{font-size:8.91px;}.cls-11,.cls-13,.cls-8{font-family:BlackHanSans-Regular, Black Han Sans;}.cls-9{fill:#dcdddd;}.cls-10{stroke:#231815;stroke-linecap:round;}.cls-10,.cls-12{stroke-miterlimit:10;}.cls-11{font-size:48.25px;}.cls-12{stroke:#000;}.cls-13{font-size:20.14px;}</style></defs><path class="cls-1" d="M2.76,108.77V94.53H49.54v14.24ZM32,93.35V76.28H3.9V62.05H48.4l-.7,31.3Z" transform="translate(-2.56 -1.34)"/><path class="cls-2" d="M46.7,105.93H5.59V97.37H46.7Zm-40-32.48V64.88H45.5l-.57,25.64H34.83V73.45Z" transform="translate(-2.56 -1.34)"/><polygon class="cls-3" points="60.71 109.14 60.71 89.67 59.57 89.67 59.57 60.53 88.81 60.53 88.81 60.08 105.21 60.08 105.21 109.14 60.71 109.14"/><path class="cls-2" d="M75.71,79.73v1.94H90.44v6.51H65v-15H78.56V71.28H65V64.71H89.29v15Zm29.23,27.92H66.11V91h38.83ZM76.85,98.23v2.28H94.2V98.23Zm28.09-9.48H94.2V64.25h10.74Z" transform="translate(-2.56 -1.34)"/><path class="cls-4" d="M149.61,110.48v-1.71H120.37V78H134V76.22H120.37V62h29.24v-.57H166v49.06Zm0-16V92.21H136.78v2.32Z" transform="translate(-2.56 -1.34)"/><path class="cls-2" d="M147.47,89.38H133.94v8h14.68v8.56H123.21V80.81H136.8V73.39H123.21V64.83h24.26Zm15.7-25.13v43.4H152.44V89.38h-3.82V80.81h3.82V64.25Z" transform="translate(-2.56 -1.34)"/><polygon class="cls-5" points="177.19 109.14 177.19 87.39 176.04 87.39 176.04 75.49 177.19 75.49 177.19 60.65 221.68 60.65 221.68 75.49 222.82 75.49 222.82 87.39 221.68 87.39 221.68 97.82 222.25 97.82 222.25 109.14 177.19 109.14"/><path class="cls-2" d="M181.44,79.67h41.11v6.22H181.44Zm1.15-14.84h38.82v5.65H193.26v1.88h28.15V77.9H182.59Zm10.67,35.56V102H222v5.66H182.59V94.74h28.09v-1.6H182.59V87.49h38.82v12.9Z" transform="translate(-2.56 -1.34)"/><polyline class="cls-6" points="209.2 110.44 209.2 131.25 18.13 131.25 0 120.96 18.13 110.44"/><polygon class="cls-7" points="18.2 110.47 3.42 118.97 3.42 122.87 18.2 131.22 18.2 110.47"/><path class="cls-7" d="M192.21,80.15" transform="translate(-2.56 -1.34)"/><text class="cls-8" transform="translate(140.63 126.01)">by Tojaeung</text><path class="cls-9" d="M209.68,110.44H216a6.85,6.85,0,0,1,6.85,6.85v7.12a6.85,6.85,0,0,1-6.85,6.85h-6.3a.48.48,0,0,1-.48-.48V110.91A.48.48,0,0,1,209.68,110.44Z"/><line class="cls-10" x1="211.94" y1="112.35" x2="211.94" y2="129.18"/><polyline points="3.42 118.97 0 120.96 3.42 122.87"/><text x="-2.56" y="-1.34"/><text class="cls-11" transform="matrix(0.45, 0.03, -0.06, 1, 4.17, 183.47)">페이지를 찾을수 없습니다.</text><path class="cls-12" d="M172.55,39.29V55.88l10.52-10.52s24.73,3.41,26.51,3.41S237.14,47,232.7,20.62s-54-17.26-54-17.26-6,1.56-15.41,9S172.55,39.29,172.55,39.29Z" transform="translate(-2.56 -1.34)"/><text class="cls-13" transform="translate(171.01 31.14)">에엥?..</text></svg>